<?xml version="1.0" standalone="no"?>
<!DOCTYPE svg PUBLIC "-//W3C//DTD SVG 20010904//EN"
 "http://www.w3.org/TR/2001/REC-SVG-20010904/DTD/svg10.dtd">
<svg version="1.0" xmlns="http://www.w3.org/2000/svg"
 width="1500.000000pt" height="1500.000000pt" viewBox="0 0 1500.000000 1500.000000"
 preserveAspectRatio="xMidYMid meet">
<metadata>
Created by potrace 1.14, written by Peter Selinger 2001-2017
</metadata>
<g transform="translate(0.000000,1500.000000) scale(0.100000,-0.100000)"
fill="#000000" stroke="none">
<path d="M0 7500 l0 -7500 7500 0 7500 0 0 7500 0 7500 -7500 0 -7500 0 0
-7500z m7952 4337 c97 -48 167 -130 198 -233 9 -32 21 -45 47 -58 87 -41 170
-142 194 -236 12 -47 15 -50 45 -50 54 0 157 -38 209 -77 63 -49 110 -110 132
-175 13 -37 28 -58 58 -78 81 -56 146 -148 161 -225 5 -27 18 -41 70 -75 115
-74 175 -183 178 -320 1 -54 6 -82 19 -100 9 -13 17 -31 17 -40 0 -8 -126
-619 -279 -1358 -238 -1148 -281 -1347 -300 -1365 l-22 -22 -1170 -3 c-1255
-2 -1212 -4 -1237 46 -5 9 -130 623 -278 1364 -221 1106 -267 1351 -257 1367
10 15 8 29 -8 72 -30 78 -24 212 12 289 49 103 105 151 257 219 7 3 24 32 37
65 43 107 146 200 253 229 29 8 42 17 42 29 0 45 45 132 97 188 78 84 158 123
265 126 78 3 81 4 125 45 72 66 142 93 247 96 l88 2 47 47 c56 57 145 101 223
110 45 5 61 12 73 30 19 30 96 82 154 106 36 14 68 17 146 15 86 -2 108 -6
157 -30z m4485 -4887 c59 -36 55 -111 -7 -143 -33 -16 -285 -17 -4952 -15
l-4916 3 -26 24 c-14 13 -28 33 -32 43 -9 30 15 75 49 92 29 14 514 16 4942
16 4864 0 4910 0 4942 -20z m-4831 -824 c-35 -39 -68 -71 -73 -71 -5 0 -43 30
-84 67 l-74 67 75 76 75 75 72 -72 72 -72 -63 -70z m2834 -470 c123 -272 226
-493 229 -491 4 2 103 224 221 494 l215 491 30 -2 30 -3 115 -530 c63 -291
121 -549 128 -572 18 -60 40 -82 92 -91 43 -7 45 -9 48 -45 l3 -37 -231 0
-231 0 3 37 c3 36 5 38 47 45 61 10 81 31 81 84 0 23 -29 194 -65 380 -36 186
-65 342 -65 348 0 25 -30 -38 -221 -471 -193 -440 -205 -463 -229 -463 -20 0
-30 8 -42 33 -8 17 -102 226 -208 462 -106 237 -196 433 -200 438 -3 4 -39
-166 -79 -378 -87 -456 -92 -416 52 -440 34 -5 37 -8 37 -41 l0 -34 -207 2
-208 3 -3 29 c-4 33 10 46 50 46 15 0 39 10 53 23 24 20 35 64 145 592 66 314
120 573 120 578 0 4 15 7 33 7 l33 0 224 -494z m-6760 467 c0 -5 -18 -83 -41
-175 l-41 -168 -38 0 -37 0 5 95 c6 115 -4 137 -72 154 -25 6 -92 11 -150 11
l-106 0 0 -511 c0 -311 4 -517 10 -528 13 -25 31 -31 125 -45 l80 -12 0 -35 0
-34 -297 -3 -298 -2 0 38 0 39 66 7 c79 8 121 28 134 62 6 15 10 231 10 525
l0 499 -107 0 c-166 -1 -220 -36 -282 -185 -29 -70 -30 -70 -71 -73 -36 -3
-41 -1 -37 15 3 10 22 81 42 158 20 77 38 148 41 158 5 16 39 17 535 17 291 0
529 -3 529 -7z m3456 -165 l-41 -173 -41 -3 -40 -3 10 75 c11 90 2 131 -37
160 -25 18 -45 21 -163 24 l-134 4 0 -504 c0 -385 3 -509 13 -528 17 -34 51
-48 135 -56 l72 -7 0 -39 0 -38 -297 2 -298 3 -3 33 c-4 36 -6 35 92 50 47 7
76 18 92 33 l24 22 0 515 0 514 -118 -3 c-109 -4 -122 -6 -160 -32 -44 -28
-89 -97 -119 -179 -17 -47 -18 -48 -59 -48 l-41 0 34 128 c18 70 39 148 45
175 l11 47 532 0 532 0 -41 -172z m-2710 -92 c206 -55 334 -245 334 -496 0
-272 -153 -474 -388 -510 -148 -23 -284 23 -386 129 -210 221 -184 640 52 809
52 38 76 49 142 68 60 17 183 17 246 0z m1139 -1 c170 -45 289 -179 330 -371
52 -245 -50 -512 -231 -600 -134 -66 -310 -47 -406 44 l-28 26 0 -211 c0 -248
0 -248 95 -267 57 -11 60 -13 63 -44 l3 -32 -230 0 -231 0 0 34 c0 32 2 34 44
40 86 13 81 -28 84 630 2 387 0 593 -8 617 -11 39 -37 56 -95 61 -27 3 -30 7
-33 40 l-3 38 198 3 c109 1 241 3 293 5 61 1 117 -4 155 -13z m2967 -22 c78
-37 114 -79 130 -154 21 -102 -38 -218 -145 -286 -89 -56 -275 -103 -411 -103
l-49 0 6 -42 c23 -167 110 -269 243 -287 88 -12 195 3 264 37 l59 30 21 -23
21 -22 -47 -41 c-77 -68 -137 -86 -289 -87 -126 0 -132 1 -197 32 -120 56
-202 156 -239 288 -22 77 -19 286 5 355 59 172 166 283 315 326 29 8 84 12
147 10 88 -2 109 -6 166 -33z m1043 13 c81 -35 114 -95 94 -169 -12 -47 -69
-112 -122 -139 -39 -19 -40 -19 -59 -1 -18 19 -18 20 1 64 57 125 -1 189 -159
177 -72 -5 -110 -30 -123 -77 -4 -19 -7 -184 -5 -368 l3 -335 27 -23 c26 -22
44 -27 156 -41 51 -6 52 -6 52 -40 l0 -34 -275 0 -275 0 0 34 c0 34 1 35 54
46 95 20 91 1 91 404 0 193 -3 363 -8 378 -8 31 -52 58 -92 58 -23 0 -25 4
-25 40 l0 40 193 3 c326 6 427 2 472 -17z m2700 3 c119 -37 182 -121 173 -231
-15 -182 -209 -305 -514 -325 -52 -3 -94 -7 -94 -8 0 -1 5 -28 11 -60 16 -86
50 -155 102 -202 54 -50 104 -65 209 -65 89 1 145 14 207 48 41 23 45 23 63 8
26 -25 23 -39 -19 -72 -84 -66 -167 -92 -295 -92 -221 0 -370 112 -434 325
-24 82 -24 258 0 340 52 175 168 299 316 339 81 22 195 20 275 -5z m-4517 -30
l3 -36 -53 -6 c-92 -11 -88 8 -88 -422 0 -410 -2 -396 63 -409 15 -3 38 -8 52
-11 21 -5 25 -11 25 -40 l0 -35 -225 0 -225 0 0 34 c0 34 13 46 50 46 35 0 69
23 80 53 14 41 14 693 -1 735 -11 33 -49 52 -100 52 -27 0 -29 3 -29 40 l0 40
223 -2 222 -3 3 -36z m-514 -1898 c36 -40 39 -110 11 -316 l-6 -40 21 37 c11
21 36 53 55 73 29 28 43 35 74 35 22 0 44 -6 51 -15 21 -25 23 -94 6 -204 -14
-93 -14 -108 -1 -134 8 -17 15 -32 15 -34 0 -8 -37 -2 -59 10 -36 18 -42 57
-25 154 19 106 16 157 -9 161 -58 11 -126 -109 -134 -238 -6 -84 -12 -92 -54
-70 -25 14 -25 52 1 244 11 81 20 195 20 252 0 57 4 104 8 104 5 0 16 -8 26
-19z m2445 -7 c26 -33 27 -104 6 -279 -8 -66 -15 -164 -15 -218 0 -97 0 -98
-22 -92 -55 16 -57 43 -28 279 11 88 20 199 20 248 0 48 4 88 9 88 5 0 19 -12
30 -26z m-2959 -79 c7 -8 10 -25 6 -40 -5 -21 -12 -25 -42 -25 -40 0 -52 19
-36 56 13 28 52 33 72 9z m3185 -25 c0 -32 -3 -35 -32 -38 -38 -4 -56 20 -42
56 7 19 15 23 41 20 30 -3 33 -6 33 -38z m555 -20 c5 -10 10 -37 10 -59 0 -45
1 -45 48 -32 27 8 32 7 32 -7 0 -31 -18 -46 -53 -45 l-35 1 -12 -67 c-18 -105
-27 -203 -22 -243 5 -43 -5 -48 -35 -15 -31 33 -36 98 -15 215 19 109 18 112
-32 92 -21 -8 -26 -7 -26 6 0 31 20 54 49 54 33 0 41 17 41 93 0 44 1 47 20
37 11 -6 24 -19 30 -30z m-4803 -111 c7 -13 13 -42 13 -64 l0 -40 20 42 c26
59 63 93 99 93 35 0 51 -22 51 -72 0 -43 -25 -78 -55 -78 -21 0 -22 2 -12 29
11 30 5 61 -13 61 -20 0 -58 -51 -75 -98 -9 -26 -19 -86 -22 -134 -6 -90 -10
-96 -47 -82 -33 13 -37 39 -20 144 9 56 14 135 12 176 -3 72 -3 73 17 60 11
-7 26 -24 32 -37z m890 -26 c-6 -58 -130 -315 -157 -327 -30 -14 -35 -1 -50
122 -7 59 -15 113 -19 120 -4 7 -29 -38 -61 -109 -52 -114 -81 -152 -101 -132
-5 5 -18 69 -29 143 -11 74 -27 157 -36 184 -16 52 -11 65 27 66 37 0 51 -36
63 -164 6 -68 14 -127 17 -130 8 -8 89 197 91 227 0 12 -2 29 -6 39 -9 19 23
33 53 23 27 -8 39 -51 51 -185 6 -63 12 -116 14 -117 7 -7 87 209 98 262 11
54 11 55 30 38 16 -14 19 -27 15 -60z m1663 9 c0 -14 -31 -82 -69 -151 -84
-152 -121 -256 -121 -340 0 -67 -9 -75 -47 -39 -29 27 -29 58 2 133 l25 60
-20 118 c-11 65 -31 151 -44 190 -26 76 -23 87 21 87 43 0 55 -39 79 -255 l7
-60 53 110 c30 61 59 134 66 164 l12 54 18 -23 c10 -12 18 -34 18 -48z m-3717
40 c20 -22 35 -89 43 -196 4 -47 10 -86 14 -86 13 0 112 221 117 261 6 44 20
46 42 7 16 -28 9 -45 -97 -244 -60 -114 -84 -188 -86 -270 -1 -67 -7 -74 -44
-48 -29 20 -29 82 -2 143 11 24 20 56 20 72 0 43 -39 237 -61 303 -16 48 -18
61 -7 67 21 14 44 10 61 -9z m395 -9 c-25 -28 -48 -65 -48 -79 0 -4 10 8 23
26 39 58 119 86 167 60 82 -44 64 -268 -26 -339 -35 -28 -96 -45 -128 -37 -14
3 -41 20 -60 36 -40 36 -62 108 -52 173 10 63 52 143 89 166 47 30 66 27 35
-6z m563 17 c23 0 28 -51 13 -142 -10 -56 -14 -124 -11 -170 5 -75 4 -77 -15
-67 -24 13 -48 67 -48 111 l-1 33 -24 -46 c-27 -52 -77 -99 -104 -99 -32 0
-68 37 -74 77 -4 21 0 81 8 133 8 52 12 112 8 133 -5 32 -3 37 13 37 11 0 30
-7 42 -16 27 -18 28 -53 7 -170 -16 -95 -12 -124 20 -124 48 0 103 111 111
222 7 91 10 102 30 94 9 -3 20 -6 25 -6z m1253 -6 c20 -19 20 -48 1 -147 -8
-43 -15 -112 -15 -153 0 -41 -4 -74 -9 -74 -5 0 -19 12 -31 28 -20 25 -22 35
-16 112 19 258 18 250 37 250 9 0 25 -7 33 -16z m314 5 c41 -14 61 -61 41 -98
-8 -14 -24 -27 -36 -29 -20 -3 -21 0 -16 32 7 44 -9 66 -48 66 -20 0 -34 -8
-45 -25 -23 -34 -10 -61 53 -110 94 -74 114 -121 77 -174 -49 -70 -207 -66
-235 5 -13 36 8 78 42 82 23 3 25 1 21 -33 -5 -45 11 -65 54 -65 37 0 64 22
64 52 0 19 -17 38 -109 119 -35 31 -41 42 -41 76 0 84 87 134 178 102z m1382
7 c0 -2 -13 -18 -29 -35 -16 -17 -31 -41 -34 -53 -6 -22 -6 -23 8 -3 46 63 81
85 139 85 55 0 96 -61 96 -144 0 -162 -126 -284 -237 -229 -58 29 -77 63 -81
147 -5 89 22 161 77 206 31 26 61 39 61 26z m559 -22 c12 -11 12 -28 2 -111
-7 -54 -12 -135 -10 -181 2 -45 1 -82 -3 -82 -3 0 -18 14 -32 31 -20 24 -26
42 -26 82 l-1 52 -24 -46 c-27 -52 -87 -109 -114 -109 -10 0 -29 9 -42 19 -23
18 -24 24 -20 118 2 54 4 131 5 171 1 67 3 72 23 72 26 0 51 -23 58 -53 3 -12
-1 -55 -10 -95 -20 -97 -20 -151 1 -159 54 -21 121 110 129 249 1 35 3 64 4
66 2 7 47 -11 60 -24z m184 -6 c10 -14 20 -44 20 -67 1 -22 3 -41 4 -41 2 0
10 17 18 38 33 78 102 117 136 76 33 -40 4 -134 -41 -134 -15 0 -17 7 -12 45
6 55 -13 61 -52 14 -34 -40 -57 -120 -60 -211 -2 -64 -5 -73 -22 -76 -10 -1
-28 4 -39 12 -19 14 -19 16 -2 152 9 77 14 159 10 183 -7 50 7 53 40 9z m742
19 c20 -15 19 -57 -5 -217 -7 -41 -10 -94 -8 -118 4 -55 -19 -54 -46 2 -18 37
-19 47 -8 135 7 53 12 122 12 154 0 48 3 57 18 57 10 0 26 -6 37 -13z m324 -2
c16 -8 31 -22 35 -30 18 -47 -5 -95 -45 -95 -17 0 -19 4 -13 23 17 51 2 77
-46 77 -32 0 -50 -17 -50 -48 0 -36 14 -55 74 -101 62 -46 79 -72 78 -114 -1
-33 -24 -62 -66 -84 -43 -22 -129 -13 -161 17 -41 38 -28 110 20 110 21 0 23
-3 18 -33 -6 -42 16 -67 61 -67 39 0 56 15 56 52 0 30 -9 40 -84 102 -58 47
-72 77 -56 129 9 31 20 42 53 58 51 22 88 24 126 4z m-2588 -295 c40 -22 16
-96 -48 -149 -46 -38 -64 -27 -34 22 13 22 21 51 21 80 0 54 19 69 61 47z"/>
<path d="M7694 11686 c-16 -7 -43 -28 -60 -46 -97 -107 -91 -103 -135 -96 -85
14 -169 -30 -222 -115 -37 -60 -70 -74 -128 -54 -101 36 -205 -2 -264 -96 -30
-46 -58 -55 -125 -39 -134 32 -255 -63 -264 -208 -7 -98 -18 -109 -123 -122
-83 -11 -134 -45 -168 -113 -14 -28 -25 -66 -25 -85 0 -65 -25 -87 -117 -102
-76 -13 -126 -49 -159 -116 -33 -67 -31 -149 5 -207 l23 -37 1570 0 1570 0 -4
65 c-6 93 -39 139 -138 186 -80 39 -99 63 -100 127 0 67 -49 132 -127 171 -49
25 -68 50 -78 106 -10 56 -28 88 -76 128 -53 46 -109 59 -196 44 l-65 -11 -29
32 c-25 28 -28 39 -28 96 1 41 -5 77 -16 100 -24 49 -86 103 -135 116 -54 15
-72 37 -87 112 -15 74 -51 124 -113 156 -51 25 -136 29 -186 8z m63 -302 c70
-34 118 -90 138 -159 20 -66 14 -115 -19 -170 l-23 -38 -17 51 c-21 62 -87
139 -141 163 -46 21 -135 25 -186 7 -19 -6 -53 -24 -76 -40 l-43 -29 0 36 c0
152 213 256 367 179z m-742 -443 c86 -39 145 -114 145 -185 l0 -35 -56 34
c-95 57 -193 59 -278 5 -51 -32 -102 -104 -112 -157 -3 -18 -10 -33 -16 -33
-5 0 -21 25 -35 56 -21 47 -24 64 -19 107 18 132 129 227 266 227 42 0 79 -7
105 -19z m1230 -95 c59 -28 118 -86 140 -138 20 -49 19 -131 -1 -171 -31 -61
-36 -62 -55 -7 -61 174 -259 236 -404 126 l-35 -27 0 41 c0 146 204 247 355
176z"/>
<path d="M5950 10063 c1 -10 70 -349 155 -753 l154 -735 0 753 1 752 -155 0
c-141 0 -155 -2 -155 -17z"/>
<path d="M6522 9987 l-93 -94 3 -47 3 -46 140 140 140 140 -50 0 c-50 0 -51 0
-143 -93z"/>
<path d="M7000 8835 l0 -1245 195 0 195 0 0 1245 0 1245 -195 0 -195 0 0
-1245z"/>
<path d="M7601 10037 c-39 -41 -42 -47 -39 -91 l3 -47 90 91 90 90 -51 0 c-46
0 -53 -4 -93 -43z"/>
<path d="M8130 8835 l0 -1245 195 0 195 0 0 1245 0 1245 -195 0 -195 0 0
-1245z"/>
<path d="M8690 10045 c0 -42 8 -44 43 -7 35 37 34 42 -8 42 -33 0 -35 -2 -35
-35z"/>
<path d="M8852 9917 l-162 -162 0 -50 0 -50 170 170 c147 148 170 176 179 213
8 36 7 42 -8 42 -9 0 -89 -73 -179 -163z"/>
<path d="M7752 9847 l-192 -192 0 -50 0 -50 200 200 c197 197 200 200 200 242
0 24 -3 43 -8 43 -4 0 -94 -87 -200 -193z"/>
<path d="M6622 9747 l-192 -192 0 -50 0 -50 200 200 c197 197 200 200 200 242
0 24 -3 43 -8 43 -4 0 -94 -87 -200 -193z"/>
<path d="M7752 9507 l-192 -192 0 -50 0 -50 200 200 c197 197 200 200 200 242
0 24 -3 43 -8 43 -4 0 -94 -87 -200 -193z"/>
<path d="M8822 9547 l-132 -132 0 -50 0 -50 129 130 c121 122 129 133 135 178
4 27 6 51 4 53 -2 2 -63 -56 -136 -129z"/>
<path d="M6622 9407 l-192 -192 0 -48 c0 -26 4 -47 8 -47 4 0 94 87 200 193
l192 193 0 47 c0 26 -3 47 -8 47 -4 0 -94 -87 -200 -193z"/>
<path d="M7752 9167 l-192 -192 0 -48 c0 -26 4 -47 8 -47 4 0 94 87 200 193
l192 193 0 47 c0 26 -3 47 -8 47 -4 0 -94 -87 -200 -193z"/>
<path d="M6627 9062 l-198 -198 3 -47 3 -47 198 198 198 198 -3 47 -3 47 -198
-198z"/>
<path d="M8777 9162 c-85 -85 -87 -89 -87 -135 0 -26 3 -47 8 -47 4 0 40 33
79 73 63 62 74 79 83 125 7 28 10 57 8 62 -2 6 -42 -29 -91 -78z"/>
<path d="M7757 8822 l-198 -198 3 -47 3 -47 198 198 198 198 -3 47 -3 47 -198
-198z"/>
<path d="M6622 8717 l-192 -192 0 -50 0 -50 200 200 c197 197 200 200 200 242
0 24 -3 43 -8 43 -4 0 -94 -87 -200 -193z"/>
<path d="M8737 8772 c-43 -44 -47 -52 -47 -97 l0 -49 38 37 c31 31 41 49 49
95 6 31 10 58 9 59 -1 2 -23 -19 -49 -45z"/>
<path d="M7752 8477 l-192 -192 0 -50 0 -50 200 200 c197 197 200 200 200 242
0 24 -3 43 -8 43 -4 0 -94 -87 -200 -193z"/>
<path d="M6622 8377 l-192 -192 0 -50 0 -50 200 200 c197 197 200 200 200 242
0 24 -3 43 -8 43 -4 0 -94 -87 -200 -193z"/>
<path d="M7752 8137 l-192 -192 0 -48 c0 -26 4 -47 8 -47 4 0 94 87 200 193
l192 193 0 47 c0 26 -3 47 -8 47 -4 0 -94 -87 -200 -193z"/>
<path d="M6627 8032 l-198 -198 3 -47 3 -47 198 198 198 198 -3 47 -3 47 -198
-198z"/>
<path d="M7763 7798 c-106 -106 -193 -197 -193 -201 0 -4 19 -7 42 -7 40 0 46
5 195 153 l154 153 -3 47 -3 47 -192 -192z"/>
<path d="M6677 7742 c-75 -75 -137 -141 -137 -145 0 -4 19 -7 42 -7 41 0 48 5
145 102 99 98 103 104 103 145 0 24 -3 43 -8 43 -4 0 -69 -62 -145 -138z"/>
<path d="M7927 7622 c-23 -25 -21 -34 6 -30 14 2 23 11 25 26 4 27 -9 28 -31
4z"/>
<path d="M4212 5779 c-50 -15 -116 -86 -141 -153 -67 -180 -46 -472 42 -587
47 -62 104 -89 189 -89 82 0 127 20 180 78 111 123 130 452 36 637 -31 60 -49
77 -108 104 -49 22 -139 27 -198 10z"/>
<path d="M5300 5768 c-25 -13 -51 -34 -57 -48 -16 -32 -18 -585 -2 -627 14
-38 75 -100 123 -125 58 -30 177 -23 232 13 81 54 124 183 124 379 0 231 -58
366 -177 417 -18 7 -68 13 -116 13 -66 0 -92 -5 -127 -22z"/>
<path d="M8214 5758 c-27 -18 -61 -51 -75 -73 -36 -53 -70 -155 -76 -232 l-6
-63 49 0 c70 0 180 26 240 55 120 59 174 178 124 274 -25 49 -70 71 -148 71
-51 0 -67 -5 -108 -32z"/>
<path d="M12024 5776 c-47 -21 -99 -77 -129 -141 -27 -58 -55 -167 -55 -219
l0 -29 78 6 c146 11 270 66 321 143 32 47 40 137 17 183 -26 49 -70 71 -141
71 -33 -1 -74 -7 -91 -14z"/>
<path d="M4916 3659 c-57 -45 -89 -154 -66 -223 27 -83 98 -82 147 2 23 39 27
58 28 123 0 62 -4 81 -19 98 -24 27 -56 27 -90 0z"/>
<path d="M8417 3662 c-41 -25 -77 -105 -77 -169 0 -90 37 -135 91 -114 56 21
89 91 89 188 0 105 -35 137 -103 95z"/>
</g>
</svg>
